<mxfile host="app.diagrams.net" modified="2023-07-26T07:59:05.352Z" agent="Mozilla/5.0 (Windows NT 10.0; Win64; x64) AppleWebKit/537.36 (KHTML, like Gecko) Chrome/114.0.0.0 Safari/537.36" version="21.6.5" etag="SM5qXJ1XkNnexYNHrvsO" type="github">
  <diagram name="페이지-1" id="sYgcCLTAoJjAeG1pjwmj">
    <mxGraphModel>
      <root>
        <mxCell id="0" />
        <mxCell id="1" parent="0" />
      </root>
    </mxGraphModel>
  </diagram>
</mxfile>
